<mxfile host="app.diagrams.net" modified="2024-04-10T03:22:16.396Z" agent="Mozilla/5.0 (Windows NT 10.0; Win64; x64) AppleWebKit/537.36 (KHTML, like Gecko) Chrome/105.0.0.0 Safari/537.36" etag="ZiFddkYIjrjg1dtYMUEO" version="24.2.3" type="github">
  <diagram name="第 1 页" id="tTcd5vJpP9vD514mA3JC">
    <mxGraphModel dx="934" dy="1618" grid="1" gridSize="10" guides="1" tooltips="1" connect="1" arrows="1" fold="1" page="1" pageScale="1" pageWidth="827" pageHeight="1169" math="0" shadow="0">
      <root>
        <mxCell id="0" />
        <mxCell id="1" parent="0" />
        <mxCell id="1dVy7zJNhAhQVXhxj1TU-36" value="" style="rounded=1;whiteSpace=wrap;html=1;opacity=80;strokeColor=#000000;perimeterSpacing=0;strokeWidth=1;fillColor=#DAE8FC;gradientColor=none;glass=0;" vertex="1" parent="1">
          <mxGeometry x="80" y="20" width="740" height="390" as="geometry" />
        </mxCell>
        <mxCell id="1dVy7zJNhAhQVXhxj1TU-1" value="" style="rounded=1;whiteSpace=wrap;html=1;fillColor=#f8cecc;strokeColor=#b85450;" vertex="1" parent="1">
          <mxGeometry x="470" y="430" width="90" height="40" as="geometry" />
        </mxCell>
        <mxCell id="1dVy7zJNhAhQVXhxj1TU-2" value="Expert 2" style="rounded=0;whiteSpace=wrap;html=1;" vertex="1" parent="1">
          <mxGeometry x="390" y="200" width="80" height="40" as="geometry" />
        </mxCell>
        <mxCell id="1dVy7zJNhAhQVXhxj1TU-3" value="Expert 1" style="rounded=0;whiteSpace=wrap;html=1;fillColor=#666666;strokeColor=#314354;fontColor=#000000;" vertex="1" parent="1">
          <mxGeometry x="300" y="200" width="80" height="40" as="geometry" />
        </mxCell>
        <mxCell id="1dVy7zJNhAhQVXhxj1TU-4" value="Expert 3" style="rounded=0;whiteSpace=wrap;html=1;" vertex="1" parent="1">
          <mxGeometry x="480" y="200" width="80" height="40" as="geometry" />
        </mxCell>
        <mxCell id="1dVy7zJNhAhQVXhxj1TU-5" value="Expert n-1" style="rounded=0;whiteSpace=wrap;html=1;fillColor=#666666;" vertex="1" parent="1">
          <mxGeometry x="600" y="200" width="80" height="40" as="geometry" />
        </mxCell>
        <mxCell id="1dVy7zJNhAhQVXhxj1TU-6" value="Expert n" style="rounded=0;whiteSpace=wrap;html=1;" vertex="1" parent="1">
          <mxGeometry x="690" y="200" width="80" height="40" as="geometry" />
        </mxCell>
        <mxCell id="1dVy7zJNhAhQVXhxj1TU-9" value="" style="endArrow=none;dashed=1;html=1;dashPattern=1 3;strokeWidth=2;rounded=0;" edge="1" parent="1">
          <mxGeometry width="50" height="50" relative="1" as="geometry">
            <mxPoint x="570" y="219.5" as="sourcePoint" />
            <mxPoint x="600" y="219.5" as="targetPoint" />
          </mxGeometry>
        </mxCell>
        <mxCell id="1dVy7zJNhAhQVXhxj1TU-10" value="Gating Network" style="rounded=0;whiteSpace=wrap;html=1;fillColor=#d5e8d4;strokeColor=#82b366;" vertex="1" parent="1">
          <mxGeometry x="360" y="350" width="80" height="40" as="geometry" />
        </mxCell>
        <mxCell id="1dVy7zJNhAhQVXhxj1TU-13" value="" style="shape=waypoint;sketch=0;fillStyle=solid;size=6;pointerEvents=1;points=[];fillColor=none;resizable=0;rotatable=0;perimeter=centerPerimeter;snapToPoint=1;" vertex="1" parent="1">
          <mxGeometry x="505" y="300" width="20" height="20" as="geometry" />
        </mxCell>
        <mxCell id="1dVy7zJNhAhQVXhxj1TU-14" value="" style="endArrow=classic;html=1;rounded=0;entryX=0.5;entryY=1;entryDx=0;entryDy=0;exitX=0.5;exitY=0;exitDx=0;exitDy=0;" edge="1" parent="1" source="1dVy7zJNhAhQVXhxj1TU-1" target="1dVy7zJNhAhQVXhxj1TU-10">
          <mxGeometry width="50" height="50" relative="1" as="geometry">
            <mxPoint x="540" y="350" as="sourcePoint" />
            <mxPoint x="590" y="300" as="targetPoint" />
          </mxGeometry>
        </mxCell>
        <mxCell id="1dVy7zJNhAhQVXhxj1TU-15" value="" style="endArrow=classic;html=1;rounded=0;entryX=0.617;entryY=1;entryDx=0;entryDy=0;entryPerimeter=0;exitX=0.5;exitY=0;exitDx=0;exitDy=0;" edge="1" parent="1" source="1dVy7zJNhAhQVXhxj1TU-1" target="1dVy7zJNhAhQVXhxj1TU-13">
          <mxGeometry width="50" height="50" relative="1" as="geometry">
            <mxPoint x="513" y="420" as="sourcePoint" />
            <mxPoint x="410" y="400" as="targetPoint" />
          </mxGeometry>
        </mxCell>
        <mxCell id="1dVy7zJNhAhQVXhxj1TU-16" value="" style="endArrow=classic;html=1;rounded=0;entryX=0.45;entryY=0.667;entryDx=0;entryDy=0;entryPerimeter=0;exitX=0.5;exitY=0;exitDx=0;exitDy=0;" edge="1" parent="1" source="1dVy7zJNhAhQVXhxj1TU-10" target="1dVy7zJNhAhQVXhxj1TU-13">
          <mxGeometry width="50" height="50" relative="1" as="geometry">
            <mxPoint x="525" y="440" as="sourcePoint" />
            <mxPoint x="525" y="320" as="targetPoint" />
          </mxGeometry>
        </mxCell>
        <mxCell id="1dVy7zJNhAhQVXhxj1TU-18" value="" style="curved=1;endArrow=classic;html=1;rounded=0;entryX=0.5;entryY=1;entryDx=0;entryDy=0;exitX=0.817;exitY=0.767;exitDx=0;exitDy=0;exitPerimeter=0;" edge="1" parent="1" source="1dVy7zJNhAhQVXhxj1TU-13" target="1dVy7zJNhAhQVXhxj1TU-3">
          <mxGeometry width="50" height="50" relative="1" as="geometry">
            <mxPoint x="440" y="310" as="sourcePoint" />
            <mxPoint x="240" y="200" as="targetPoint" />
            <Array as="points">
              <mxPoint x="330" y="280" />
            </Array>
          </mxGeometry>
        </mxCell>
        <mxCell id="1dVy7zJNhAhQVXhxj1TU-19" value="" style="curved=1;endArrow=classic;html=1;rounded=0;entryX=0.633;entryY=1.05;entryDx=0;entryDy=0;exitX=0.95;exitY=0.167;exitDx=0;exitDy=0;exitPerimeter=0;entryPerimeter=0;" edge="1" parent="1" source="1dVy7zJNhAhQVXhxj1TU-13" target="1dVy7zJNhAhQVXhxj1TU-5">
          <mxGeometry width="50" height="50" relative="1" as="geometry">
            <mxPoint x="770" y="360" as="sourcePoint" />
            <mxPoint x="595" y="290" as="targetPoint" />
            <Array as="points">
              <mxPoint x="670" y="270" />
            </Array>
          </mxGeometry>
        </mxCell>
        <mxCell id="1dVy7zJNhAhQVXhxj1TU-20" value="" style="verticalLabelPosition=bottom;verticalAlign=top;html=1;shape=mxgraph.flowchart.or;" vertex="1" parent="1">
          <mxGeometry x="415" y="110" width="30" height="30" as="geometry" />
        </mxCell>
        <mxCell id="1dVy7zJNhAhQVXhxj1TU-21" value="" style="edgeStyle=elbowEdgeStyle;elbow=vertical;endArrow=classic;html=1;curved=0;rounded=0;endSize=8;startSize=8;exitX=0;exitY=0.5;exitDx=0;exitDy=0;entryX=0;entryY=0.5;entryDx=0;entryDy=0;entryPerimeter=0;" edge="1" parent="1" source="1dVy7zJNhAhQVXhxj1TU-10" target="1dVy7zJNhAhQVXhxj1TU-20">
          <mxGeometry width="50" height="50" relative="1" as="geometry">
            <mxPoint x="250" y="335" as="sourcePoint" />
            <mxPoint x="300" y="285" as="targetPoint" />
            <Array as="points">
              <mxPoint x="260" y="370" />
            </Array>
          </mxGeometry>
        </mxCell>
        <mxCell id="1dVy7zJNhAhQVXhxj1TU-23" value="" style="verticalLabelPosition=bottom;verticalAlign=top;html=1;shape=mxgraph.flowchart.or;" vertex="1" parent="1">
          <mxGeometry x="570" y="140" width="30" height="30" as="geometry" />
        </mxCell>
        <mxCell id="1dVy7zJNhAhQVXhxj1TU-24" value="" style="edgeStyle=elbowEdgeStyle;elbow=vertical;endArrow=classic;html=1;curved=0;rounded=0;endSize=8;startSize=8;exitX=0;exitY=0.5;exitDx=0;exitDy=0;entryX=0;entryY=0.5;entryDx=0;entryDy=0;entryPerimeter=0;" edge="1" parent="1" source="1dVy7zJNhAhQVXhxj1TU-10" target="1dVy7zJNhAhQVXhxj1TU-23">
          <mxGeometry width="50" height="50" relative="1" as="geometry">
            <mxPoint x="210" y="320" as="sourcePoint" />
            <mxPoint x="410" y="95" as="targetPoint" />
            <Array as="points">
              <mxPoint x="110" y="320" />
            </Array>
          </mxGeometry>
        </mxCell>
        <mxCell id="1dVy7zJNhAhQVXhxj1TU-37" value="G(x)" style="edgeLabel;html=1;align=center;verticalAlign=middle;resizable=0;points=[];" vertex="1" connectable="0" parent="1dVy7zJNhAhQVXhxj1TU-24">
          <mxGeometry x="-0.8629" relative="1" as="geometry">
            <mxPoint as="offset" />
          </mxGeometry>
        </mxCell>
        <mxCell id="1dVy7zJNhAhQVXhxj1TU-25" value="" style="shape=orEllipse;perimeter=ellipsePerimeter;whiteSpace=wrap;html=1;backgroundOutline=1;" vertex="1" parent="1">
          <mxGeometry x="500" y="50" width="25" height="30" as="geometry" />
        </mxCell>
        <mxCell id="1dVy7zJNhAhQVXhxj1TU-26" value="" style="curved=1;endArrow=classic;html=1;rounded=0;entryX=0.5;entryY=1;entryDx=0;entryDy=0;exitX=1;exitY=0.5;exitDx=0;exitDy=0;exitPerimeter=0;" edge="1" parent="1" source="1dVy7zJNhAhQVXhxj1TU-20" target="1dVy7zJNhAhQVXhxj1TU-25">
          <mxGeometry width="50" height="50" relative="1" as="geometry">
            <mxPoint x="590" y="118" as="sourcePoint" />
            <mxPoint x="726" y="50" as="targetPoint" />
            <Array as="points">
              <mxPoint x="490" y="125" />
            </Array>
          </mxGeometry>
        </mxCell>
        <mxCell id="1dVy7zJNhAhQVXhxj1TU-27" value="" style="curved=1;endArrow=classic;html=1;rounded=0;entryX=0.5;entryY=1;entryDx=0;entryDy=0;exitX=0.5;exitY=0;exitDx=0;exitDy=0;exitPerimeter=0;" edge="1" parent="1" source="1dVy7zJNhAhQVXhxj1TU-23" target="1dVy7zJNhAhQVXhxj1TU-25">
          <mxGeometry width="50" height="50" relative="1" as="geometry">
            <mxPoint x="455" y="135" as="sourcePoint" />
            <mxPoint x="523" y="90" as="targetPoint" />
            <Array as="points">
              <mxPoint x="520" y="130" />
            </Array>
          </mxGeometry>
        </mxCell>
        <mxCell id="1dVy7zJNhAhQVXhxj1TU-28" value="" style="rounded=1;whiteSpace=wrap;html=1;fillColor=#f8cecc;strokeColor=#b85450;" vertex="1" parent="1">
          <mxGeometry x="467.5" y="-50" width="90" height="40" as="geometry" />
        </mxCell>
        <mxCell id="1dVy7zJNhAhQVXhxj1TU-29" value="" style="endArrow=classic;html=1;rounded=0;exitX=0.5;exitY=0;exitDx=0;exitDy=0;entryX=0.5;entryY=1;entryDx=0;entryDy=0;" edge="1" parent="1" source="1dVy7zJNhAhQVXhxj1TU-25" target="1dVy7zJNhAhQVXhxj1TU-28">
          <mxGeometry width="50" height="50" relative="1" as="geometry">
            <mxPoint x="510" y="30" as="sourcePoint" />
            <mxPoint x="520" as="targetPoint" />
          </mxGeometry>
        </mxCell>
        <mxCell id="1dVy7zJNhAhQVXhxj1TU-31" value="" style="endArrow=classic;html=1;rounded=0;exitX=0.5;exitY=0;exitDx=0;exitDy=0;" edge="1" parent="1" source="1dVy7zJNhAhQVXhxj1TU-28">
          <mxGeometry width="50" height="50" relative="1" as="geometry">
            <mxPoint x="514.5" y="-90" as="sourcePoint" />
            <mxPoint x="513" y="-100" as="targetPoint" />
          </mxGeometry>
        </mxCell>
        <mxCell id="1dVy7zJNhAhQVXhxj1TU-32" value="" style="curved=1;endArrow=classic;html=1;rounded=0;entryX=0.5;entryY=1;entryDx=0;entryDy=0;exitX=0.5;exitY=0;exitDx=0;exitDy=0;entryPerimeter=0;" edge="1" parent="1" source="1dVy7zJNhAhQVXhxj1TU-3" target="1dVy7zJNhAhQVXhxj1TU-20">
          <mxGeometry width="50" height="50" relative="1" as="geometry">
            <mxPoint x="455" y="135" as="sourcePoint" />
            <mxPoint x="522" y="90" as="targetPoint" />
            <Array as="points">
              <mxPoint x="360" y="150" />
            </Array>
          </mxGeometry>
        </mxCell>
        <mxCell id="1dVy7zJNhAhQVXhxj1TU-33" value="" style="curved=1;endArrow=classic;html=1;rounded=0;exitX=0.5;exitY=0;exitDx=0;exitDy=0;entryX=0.855;entryY=0.855;entryDx=0;entryDy=0;entryPerimeter=0;" edge="1" parent="1" source="1dVy7zJNhAhQVXhxj1TU-5" target="1dVy7zJNhAhQVXhxj1TU-23">
          <mxGeometry width="50" height="50" relative="1" as="geometry">
            <mxPoint x="525" y="320" as="sourcePoint" />
            <mxPoint x="710" y="100" as="targetPoint" />
            <Array as="points">
              <mxPoint x="660" y="155" />
            </Array>
          </mxGeometry>
        </mxCell>
        <mxCell id="1dVy7zJNhAhQVXhxj1TU-34" value="" style="endArrow=classic;html=1;rounded=0;entryX=0.5;entryY=1;entryDx=0;entryDy=0;" edge="1" parent="1">
          <mxGeometry width="50" height="50" relative="1" as="geometry">
            <mxPoint x="517" y="540" as="sourcePoint" />
            <mxPoint x="516.9999999999998" y="470" as="targetPoint" />
          </mxGeometry>
        </mxCell>
        <mxCell id="1dVy7zJNhAhQVXhxj1TU-35" value="X" style="edgeLabel;html=1;align=center;verticalAlign=middle;resizable=0;points=[];" vertex="1" connectable="0" parent="1dVy7zJNhAhQVXhxj1TU-34">
          <mxGeometry x="0.2235" y="2" relative="1" as="geometry">
            <mxPoint as="offset" />
          </mxGeometry>
        </mxCell>
        <mxCell id="1dVy7zJNhAhQVXhxj1TU-40" value="&lt;b&gt;&lt;font style=&quot;font-size: 14px;&quot;&gt;Sparse MoE Layer&lt;/font&gt;&lt;/b&gt;" style="text;strokeColor=none;align=center;fillColor=none;html=1;verticalAlign=middle;whiteSpace=wrap;rounded=0;" vertex="1" parent="1">
          <mxGeometry x="100" y="30" width="140" height="30" as="geometry" />
        </mxCell>
      </root>
    </mxGraphModel>
  </diagram>
</mxfile>
